<svg width="86" height="73" viewBox="0 0 86 73" fill="none" xmlns="http://www.w3.org/2000/svg">
<path fill-rule="evenodd" clip-rule="evenodd" d="M41.9923 0.995595L42.5705 0L43.1487 0.995595L51.1368 14.75L51.7175 15.75H50.5611H34.5799H33.4235L34.0042 14.75L41.9923 0.995595ZM35.1606 14.75L42.5705 1.99119L49.9803 14.75H35.1606ZM8.79722 57.9956L9.37542 57L9.95363 57.9956L17.9417 71.75L18.5224 72.75H17.366H1.3848H0.228394L0.809157 71.75L8.79722 57.9956ZM1.96557 71.75L9.37542 58.9912L16.7853 71.75H1.96557ZM76.7715 57L76.1933 57.9956L68.2053 71.75L67.6245 72.75H68.7809H84.7622H85.9186L85.3378 71.75L77.3497 57.9956L76.7715 57ZM76.7715 58.9912L69.3617 71.75H84.1814L76.7715 58.9912ZM31.5055 20.5H31.2195L31.0745 20.7465L11.9622 53.2465L11.8119 53.5022L11.9641 53.7567L23.0291 72.2567L23.1747 72.5H23.4582H62.6888H62.9658L63.1127 72.2651L74.6807 53.7651L74.8456 53.5013L74.6819 53.2368L54.5637 20.7368L54.4171 20.5H54.1385H31.5055ZM12.9745 53.4978L31.7915 21.5H53.86L73.6679 53.4987L62.4117 71.5H23.7418L12.9745 53.4978Z" fill="black"/>
</svg>
