<svg width="57" height="80" viewBox="0 0 57 80" fill="none" xmlns="http://www.w3.org/2000/svg">
<path fill-rule="evenodd" clip-rule="evenodd" d="M27.7233 0.995595L28.3015 0L28.8797 0.995597L55.5974 47L56.1782 48H55.0218H46.3052L55.5974 64L56.1782 65H55.0218H47.4667L55.5974 79L56.1782 80H55.0218H1.58128H0.424866L1.00563 79L9.13632 65H1.58128H0.424866L1.00563 64L10.2978 48H1.58128H0.424866L1.00563 47L27.7233 0.995595ZM11.4543 48L2.16204 64H9.71708L19.0093 48H11.4543ZM19.5901 47H12.035L28.3015 18.9912L44.568 47H37.013L28.8797 32.9956L28.3015 32L27.7233 32.9956L19.5901 47ZM20.1657 48L10.8735 64H45.7295L36.4373 48H20.1657ZM35.8566 47H20.7465L28.3015 33.9912L35.8566 47ZM37.5937 48L46.886 64H54.441L45.1488 48H37.5937ZM45.7244 47L28.8797 17.9956L28.3015 17L27.7233 17.9956L10.8786 47H2.16204L28.3015 1.99119L54.441 47H45.7244ZM2.16204 79L10.2927 65H46.3103L54.441 79H2.16204Z" fill="black"/>
</svg>
