<svg width="40" height="40" viewBox="0 0 40 40" fill="none" xmlns="http://www.w3.org/2000/svg">
<path d="M39.2438 18.2325L21.7438 0.7325C21.2556 0.244375 20.6156 0 19.9763 0C19.3369 0 18.6969 0.244375 18.2088 0.7325L0.708757 18.2325C-0.267493 19.2113 -0.218743 20.7425 0.757507 21.7188C1.73626 22.7 3.16688 22.8444 4.14626 21.865L5.00001 21.0106V37.5C5.00001 38.8819 6.11813 40 7.50001 40H17.5V30H22.5V40H32.5C33.8819 40 35 38.8819 35 37.5V21.0594L35.7469 21.8062C36.7231 22.7825 38.215 22.695 39.1944 21.7181C40.1713 20.7425 40.2225 19.2088 39.2438 18.2325Z" fill="white"/>
</svg>
