<svg width="17" height="20" viewBox="0 0 17 20" fill="none" xmlns="http://www.w3.org/2000/svg">
<path d="M1.30097 20H15.7434C16.462 20 17.0446 19.4174 17.0446 18.6988V8.15999C17.0446 7.44137 16.462 6.85875 15.7434 6.85875H15.4935C15.4312 3.06651 12.329 0 8.52216 0C4.71538 0 1.61312 3.06651 1.55111 6.85879H1.3012C0.582585 6.85879 0 7.44137 0 8.16003V18.6991C0 19.4174 0.582359 20 1.30097 20ZM9.78625 13.4983V16.6571C9.78625 17.2936 9.27008 17.8098 8.63352 17.8098H8.41058C7.77405 17.8098 7.25784 17.2936 7.25784 16.6571V13.4983C6.58119 13.0757 6.12929 12.3265 6.12929 11.4697C6.12929 10.1485 7.20043 9.07709 8.5219 9.07709C9.84336 9.07709 10.9145 10.1482 10.9145 11.4697C10.9148 12.3265 10.4629 13.0757 9.78625 13.4983ZM8.52216 2.76657C10.8032 2.76657 12.6619 4.59227 12.7239 6.85879H4.32043C4.38248 4.59253 6.24113 2.76657 8.52216 2.76657Z" fill="#949494"/>
</svg>
