<svg width="95" height="82" viewBox="0 0 95 82" fill="none" xmlns="http://www.w3.org/2000/svg">
<path fill-rule="evenodd" clip-rule="evenodd" d="M40.995 36.5H1.91491L27.1832 80.0088L46.7233 46.3634L40.995 36.5ZM40.4142 35.5H1.33415H0.177734L0.758499 36.5L26.605 81.0044L27.1832 82L27.7615 81.0044L47.3015 47.359L66.8416 81.0044L67.4198 82L67.998 81.0044L93.8445 36.5L94.4253 35.5H93.2689H54.1888H53.9803L73.7263 1.5L74.307 0.5H73.1506H21.4524H20.296L20.8768 1.5L40.6228 35.5H40.4142ZM41.7792 35.5H52.8239L72.5699 1.5H22.0332L41.7792 35.5ZM52.2431 36.5H42.3599L47.3015 45.0088L52.2431 36.5ZM47.8797 46.3634L53.608 36.5H92.6881L67.4198 80.0088L47.8797 46.3634Z" fill="black"/>
</svg>
