<svg width="18" height="18" viewBox="0 0 18 18" fill="none" xmlns="http://www.w3.org/2000/svg">
<path d="M1 12V13.8002C1 14.9203 1 15.4801 1.21799 15.9079C1.40973 16.2842 1.71547 16.5905 2.0918 16.7822C2.5192 17 3.07899 17 4.19691 17H9M1 12V6M1 12H9M1 6V4.2002C1 3.08009 1 2.51962 1.21799 2.0918C1.40973 1.71547 1.71547 1.40973 2.0918 1.21799C2.51962 1 3.08009 1 4.2002 1H9M1 6H9M9 1H13.8002C14.9203 1 15.4801 1 15.9079 1.21799C16.2842 1.40973 16.5905 1.71547 16.7822 2.0918C17 2.5192 17 3.07899 17 4.19691V6M9 1V6M9 6V12M9 6H17M9 12V17M9 12H17M9 17H13.8036C14.9215 17 15.4805 17 15.9079 16.7822C16.2842 16.5905 16.5905 16.2842 16.7822 15.9079C17 15.4805 17 14.9215 17 13.8036V12M17 12V6" stroke="white" stroke-width="2" stroke-linecap="round" stroke-linejoin="round"/>
</svg>
